<svg width="61" height="66" viewBox="0 0 61 66" fill="none" xmlns="http://www.w3.org/2000/svg">
<rect width="61" height="66" fill="white"/>
<g id="Landing Page-Sign In" clip-path="url(#clip0_0_1)">
<rect width="1440" height="3771" transform="translate(-709 -589)" fill="white"/>
<g id="Home Screen">
<rect id="Rectangle 84" x="-709" y="-503" width="1440" height="678" fill="#F7F5F9"/>
<g id="Group 1250">
<g id="Group 27">
<g id="5793401 1" clip-path="url(#clip1_0_1)">
<g id="OBJECTS">
<path id="Vector" d="M9.2642 18.5109C9.2642 18.5109 10.5939 29.0273 5.51697 33.3789C-0.0676029 38.1609 -4.79636 56.926 15.5547 62.0899C35.9058 67.2539 59.332 69.2701 60.6375 41.3569C61.8463 15.4889 56.4067 7.75268 50.1791 1.6459C44.3237 -4.09824 9.2642 18.5109 9.2642 18.5109Z" fill="#352C38"/>
<path id="Vector_2" d="M12.2134 28.679C12.2134 28.679 12.8226 37.184 20.1092 35.9704C27.3957 34.7568 17.9865 25.338 12.2134 28.679Z" fill="#F29083"/>
<path id="Vector_3" d="M54.5889 21.1169C54.5889 21.1169 59.9607 27.7411 53.8104 31.8364C47.6601 35.9318 48.0953 22.6255 54.5889 21.1169Z" fill="#F29083"/>
<path id="Vector_4" d="M29.8329 1.03654C29.8329 1.03654 12.2137 4.98685 13.7319 20.4786C15.6321 39.8192 29.2044 50.2437 39.2469 49.3347C49.2895 48.4257 54.2939 31.1884 52.002 17.4228C50.4838 8.32793 44.7155 -0.78147 29.8329 1.03654Z" fill="#FFAC9D"/>
<path id="Vector_5" d="M13.7319 20.4785C13.7319 20.4785 13.7754 20.788 13.8528 21.3682C13.8915 21.6583 13.9302 22.0161 14.0027 22.4319L14.2493 23.8825C14.3557 24.4192 14.4911 25.0042 14.6313 25.6473C14.7715 26.2904 14.9601 26.977 15.1825 27.6974C15.6639 29.326 16.2501 30.9217 16.9376 32.4745C17.749 34.3064 18.7198 36.0635 19.8387 37.7255C21.0834 39.5801 22.5281 41.2923 24.1468 42.8314C24.9971 43.645 25.9035 44.398 26.8593 45.0845C27.8293 45.7966 28.8544 46.4304 29.9248 46.9799C32.0897 48.1312 34.4642 48.835 36.9068 49.0493C38.1197 49.1671 39.3436 49.092 40.5331 48.8269C41.6968 48.5325 42.7943 48.0206 43.7678 47.3184C45.6602 45.886 47.2069 44.0469 48.2935 41.9369C49.3517 39.972 50.1947 37.8986 50.8078 35.7527C51.3548 33.8228 51.7636 31.8564 52.031 29.8684C52.441 26.8859 52.5544 23.8702 52.3695 20.8653C52.3357 20.319 52.297 19.8355 52.2486 19.4148C52.2003 18.9941 52.1713 18.6315 52.1277 18.3462C52.0504 17.766 52.0069 17.4566 52.0069 17.4566C52.0069 17.4566 52.06 17.7612 52.1519 18.3414C52.2051 18.6267 52.2535 18.9845 52.3066 19.4051C52.3598 19.8258 52.4227 20.3141 52.4662 20.8557C52.5726 21.9436 52.6548 23.2732 52.6548 24.7963C52.6668 26.5059 52.5699 28.2146 52.3647 29.9119C52.1317 31.9226 51.752 33.9135 51.2284 35.8688C50.6491 38.0635 49.8185 40.1841 48.7528 42.1883C47.6356 44.3745 46.043 46.2827 44.0918 47.7729C43.0611 48.5265 41.8958 49.0763 40.6588 49.3926C39.4135 49.6784 38.1308 49.7649 36.8584 49.6489C34.3401 49.4132 31.895 48.6732 29.6685 47.4731C28.5747 46.9149 27.5285 46.268 26.5402 45.539C25.5701 44.8341 24.6508 44.0618 23.789 43.2278C22.1493 41.64 20.7003 39.8664 19.4712 37.943C17.4398 34.7994 15.9219 31.3523 14.9746 27.7312C14.7715 27.0011 14.6361 26.2807 14.4911 25.657C14.346 25.0332 14.2541 24.4143 14.1623 23.8776C14.0704 23.3409 14.0124 22.8526 13.9544 22.4271C13.8963 22.0016 13.8673 21.6486 13.8335 21.3537L13.7319 20.4785Z" fill="#D15A5A"/>
<path id="Vector_6" d="M28.242 3.97634C28.242 3.97634 33.1593 25.6087 57.4172 23.3169C57.4172 23.3169 59.3851 -3.56163 36.4375 -2.90405C13.49 -2.24647 5.29926 6.2827 10.8693 30.2021C10.8693 30.2069 29.8811 27.9054 28.242 3.97634Z" fill="#352C38"/>
<path id="Vector_7" d="M28.3145 1.95039C28.3145 1.95039 29.2235 21.9969 48.6607 25.338L28.3145 1.95039Z" fill="#352C38"/>
<path id="Vector_8" d="M21.4487 29.2063C21.4487 29.2063 21.5213 29.4045 21.6615 29.7381C21.8501 30.1957 22.0631 30.6428 22.2997 31.0775C22.6084 31.6824 23.0098 32.2355 23.4892 32.7166C23.7404 32.9627 24.0448 33.148 24.3788 33.2581C24.7158 33.3531 25.0739 33.3413 25.4038 33.2243H25.4329H25.4087L25.4812 33.1904L25.6504 33.1082C25.7423 33.0647 25.8439 33.026 25.9309 32.9777C26.0698 32.8817 26.2022 32.7767 26.3274 32.6634C26.4592 32.5393 26.5775 32.4015 26.6803 32.2524C26.7335 32.175 26.7867 32.1074 26.8351 32.03L26.9559 31.7882C27.2386 31.177 27.4199 30.5237 27.4926 29.8542C27.5561 29.3635 27.5884 28.8694 27.5893 28.3746C27.5893 28.012 27.5893 27.8041 27.5893 27.8041C27.6431 27.9885 27.6867 28.1757 27.7199 28.365C27.8172 28.8637 27.869 29.3702 27.8746 29.8784C27.8759 30.2232 27.8501 30.5675 27.7972 30.9082C27.7439 31.2988 27.6399 31.6808 27.4878 32.0445L27.3573 32.3298C27.3089 32.4265 27.246 32.5135 27.188 32.6102C27.0733 32.8005 26.9334 32.9746 26.7722 33.1276C26.6 33.2935 26.4121 33.4425 26.2113 33.5724C26.1146 33.6256 26.0228 33.6643 25.9309 33.7078L25.7907 33.7755L25.723 33.8093H25.6843H25.6408C25.183 33.9543 24.6916 33.9543 24.2338 33.8093C23.7998 33.6737 23.4061 33.4329 23.0878 33.1082C22.5956 32.5553 22.2133 31.9137 21.9613 31.2177C21.785 30.7454 21.6444 30.2605 21.5406 29.7671C21.4681 29.4142 21.4487 29.2063 21.4487 29.2063Z" fill="#1C171E"/>
<path id="Vector_9" d="M37.5835 26.0246L37.7962 26.5564C37.9316 26.8901 38.1492 27.3591 38.4345 27.8958C38.7449 28.4997 39.146 29.0525 39.6239 29.5349C39.8778 29.7802 40.1834 29.9652 40.5184 30.0764C40.8538 30.1714 41.2103 30.1595 41.5386 30.0426H41.5725H41.5483L41.6209 30.0087L41.7611 29.9459C41.8529 29.9024 41.9545 29.8637 42.0367 29.8153C42.178 29.7205 42.3121 29.6155 42.438 29.501C42.5685 29.3756 42.6867 29.238 42.791 29.09C42.8393 29.0127 42.8973 28.945 42.9457 28.8676L43.0666 28.6259C43.3493 28.0146 43.5305 27.3614 43.6033 26.6918C43.6654 26.2011 43.6961 25.7069 43.6951 25.2123C43.6951 24.8496 43.6951 24.6417 43.6951 24.6417C43.7489 24.8261 43.7925 25.0134 43.8257 25.2026C43.9237 25.7011 43.9739 26.2079 43.9756 26.716C43.9786 27.0607 43.9544 27.405 43.903 27.7459C43.8462 28.1347 43.7406 28.5149 43.5887 28.8773L43.463 29.1674C43.4099 29.2593 43.3518 29.3511 43.2938 29.443C43.1792 29.6349 43.0393 29.8105 42.878 29.9652C42.7057 30.1312 42.5179 30.2801 42.3171 30.41C42.2204 30.4632 42.1285 30.5019 42.0367 30.5454L41.8964 30.6131L41.8239 30.647H41.7804H41.7417C41.2839 30.7919 40.7925 30.7919 40.3347 30.647C39.9111 30.4986 39.5307 30.2478 39.2275 29.9169C38.7336 29.3652 38.351 28.7232 38.1009 28.0263C37.9201 27.5555 37.7794 27.0703 37.6802 26.5758C37.6383 26.3939 37.606 26.2099 37.5835 26.0246Z" fill="#1C171E"/>
<path id="Vector_10" d="M31.1189 28.9305C31.0703 29.9562 30.9508 30.9772 30.7611 31.9863C30.6692 32.4699 30.5725 32.9872 30.4613 33.4852C30.3501 33.9833 30.2244 34.4813 30.0939 34.9745L29.9681 34.694C31.0947 35.3758 32.2068 36.072 33.285 36.8311C32.0714 36.3186 30.8916 35.7384 29.7215 35.1437L29.562 35.0663L29.591 34.8681C29.6732 34.3846 29.7602 33.8575 29.8666 33.3595C29.973 32.8615 30.0793 32.3635 30.2002 31.8655C30.4403 30.8677 30.7472 29.8872 31.1189 28.9305Z" fill="#D15A5A"/>
<path id="Vector_11" d="M30.8628 39.8289C30.8628 39.8289 31.0369 39.8869 31.3463 39.9642C31.4962 40.0078 31.6799 40.0513 31.8927 40.1045C32.1054 40.1576 32.3423 40.1963 32.5986 40.2544C32.8549 40.3124 33.1401 40.3559 33.4399 40.3849C33.7397 40.4139 34.054 40.4478 34.3828 40.4574C34.7146 40.4743 35.047 40.4743 35.3788 40.4574C35.548 40.4574 35.7173 40.4139 35.8623 40.3946C36.0256 40.3786 36.1873 40.3495 36.3458 40.3075C36.6782 40.2432 37.0024 40.1427 37.3129 40.0078C37.4676 39.9401 37.6272 39.8869 37.7722 39.8192L38.188 39.5726C38.4564 39.4192 38.7076 39.2377 38.9375 39.0311C39.0487 38.9344 39.1696 38.8522 39.2663 38.7506L39.537 38.446C39.711 38.2773 39.8726 38.0964 40.0205 37.9045L40.3445 37.421L40.6346 37.0245L40.4509 37.508C40.388 37.6531 40.3107 37.832 40.2188 38.035C40.1058 38.2576 39.9731 38.4696 39.8223 38.6684L39.5806 39.0262C39.4832 39.1472 39.3765 39.2603 39.2614 39.3647C39.0374 39.6171 38.7804 39.8383 38.4975 40.0223L38.0527 40.3269C37.8931 40.4139 37.7239 40.4816 37.5691 40.559C37.2277 40.7117 36.8711 40.8284 36.5054 40.9071C36.323 40.9526 36.1369 40.9817 35.9494 40.9941C35.7656 40.9941 35.5819 41.0473 35.3981 41.0521C35.0414 41.0599 34.6845 41.0453 34.3296 41.0086C34.0033 40.9802 33.6799 40.9252 33.3626 40.8442C33.0531 40.7862 32.7727 40.6798 32.5116 40.6073C31.9325 40.4154 31.3789 40.154 30.8628 39.8289Z" fill="#D15A5A"/>
<path id="Vector_12" d="M34.1023 24.5838C34.0824 24.3651 34.0824 24.145 34.1023 23.9262C34.1509 23.3429 34.2777 22.7689 34.4795 22.2194C34.7755 21.4062 35.2402 20.6647 35.843 20.0436C36.207 19.6776 36.6223 19.3665 37.0759 19.1201C37.56 18.8674 38.0803 18.6912 38.6183 18.5979C39.146 18.523 39.6815 18.523 40.2091 18.5979C40.4611 18.6269 40.7102 18.677 40.9537 18.7478C41.1896 18.8061 41.4207 18.882 41.6451 18.975C41.8608 19.0522 42.0708 19.1443 42.2737 19.2506C42.4719 19.357 42.6702 19.4489 42.8443 19.5649L43.3278 19.8986L43.7678 20.2418C44.0214 20.4458 44.2605 20.6671 44.4834 20.9043C44.6575 21.078 44.819 21.2638 44.9669 21.4603C45.2328 21.7843 45.3634 21.9825 45.3634 21.9825C45.3634 21.9825 45.1264 21.9196 44.7445 21.7746L44.0627 21.528C43.8016 21.4361 43.5163 21.3201 43.202 21.2185L42.7185 21.0493L42.2012 20.8946C42.0271 20.8366 41.8482 20.7931 41.6645 20.7495C41.4832 20.6964 41.2992 20.6528 41.1133 20.619C40.7421 20.5406 40.3655 20.4905 39.9867 20.4691C39.6202 20.4461 39.2522 20.4624 38.8891 20.5175C38.5377 20.5804 38.194 20.6809 37.8641 20.8172C37.5368 20.9625 37.2242 21.1389 36.9309 21.3443C36.3679 21.7645 35.8581 22.2516 35.4126 22.7948C34.9871 23.2783 34.6632 23.7618 34.4456 24.0713L34.1023 24.5838Z" fill="#1C171E"/>
<path id="Vector_13" d="M28.8849 25.4539L28.4014 25.1638C28.1017 24.9849 27.681 24.7383 27.183 24.4724C26.6525 24.1765 26.0996 23.9227 25.5294 23.7133C25.2385 23.609 24.9392 23.5297 24.6349 23.4764C24.3464 23.423 24.0525 23.4052 23.7597 23.4232C23.4707 23.4386 23.1847 23.4905 22.9087 23.5779C22.7685 23.6214 22.6331 23.6794 22.4929 23.7278C22.3527 23.7761 22.2173 23.8583 22.0867 23.9309C21.8194 24.0789 21.5595 24.2403 21.3083 24.4144C21.0714 24.6029 20.8248 24.7722 20.6169 24.9559C20.409 25.1396 20.1962 25.2992 20.0173 25.4394L19.5338 25.8456C19.3949 25.9737 19.2497 26.0947 19.0986 26.2082C19.1246 26.0196 19.16 25.8324 19.205 25.6473C19.2491 25.4342 19.3122 25.2254 19.3936 25.0236C19.481 24.7538 19.591 24.4917 19.7224 24.2403C19.8789 23.9344 20.06 23.6417 20.2639 23.3652C20.5094 23.0509 20.7847 22.7611 21.0859 22.4997C21.4318 22.2103 21.8177 21.9725 22.2318 21.7937C23.1256 21.4142 24.1228 21.3545 25.0555 21.6245C25.4817 21.7432 25.8899 21.9188 26.2692 22.1467C26.8997 22.5239 27.454 23.0159 27.9034 23.5972C28.2149 23.9923 28.4764 24.4242 28.6819 24.8834C28.7659 25.0674 28.8338 25.2583 28.8849 25.4539Z" fill="#1C171E"/>
<path id="Vector_14" d="M21.5311 96.6177C21.5311 96.6177 -7.62963 124.56 -5.60371 174.778H78.634C78.634 174.778 91.2054 118.888 67.6969 88.514C44.1885 58.1397 21.5311 96.6177 21.5311 96.6177Z" fill="#FC6A5A"/>
<path id="Vector_15" d="M38.7776 111.766C48.327 114.493 58.1761 116.055 68.0108 117.365C71.9514 117.892 76.0033 118.376 80.0986 118.729C78.1307 107.84 74.369 97.1495 67.6917 88.514C44.2026 58.1397 21.5258 96.6177 21.5258 96.6177C19.3177 98.8596 17.2797 101.263 15.4287 103.808C23.1698 106.602 30.8673 109.503 38.7776 111.766Z" fill="#EA4134"/>
<path id="Vector_16" d="M-3.1768 49.6394L-3.57812 36.2751C-3.57812 36.2751 31.2349 37.8948 36.1087 52.0666C36.1087 52.0666 52.3064 33.843 70.9217 30.6035L77.8069 65.8371L-3.1768 49.6394Z" fill="#FDDEC0"/>
<path id="Vector_17" d="M-8.03613 38.7023L30.437 46.8011L34.0827 101.472L-6.41635 91.3472L-8.03613 38.7023Z" fill="#0096C8"/>
<path id="Vector_18" d="M-8.03613 38.7023L30.437 46.8011L34.0827 101.472L-6.41635 91.3472L-8.03613 38.7023Z" stroke="#1B4268" stroke-width="0.5" stroke-miterlimit="10"/>
<path id="Vector_19" d="M79.0884 33.7318L42.0513 46.9172L45.7743 101.583L84.5473 86.1205L79.0884 33.7318Z" fill="#0096C8"/>
<path id="Vector_20" d="M79.0884 33.7318L42.0513 46.9172L45.7743 101.583L84.5473 86.1205L79.0884 33.7318Z" stroke="#1B4268" stroke-width="0.5" stroke-miterlimit="10"/>
<path id="Vector_21" d="M30.437 46.8012L43.4 46.395L46.6395 104.31C46.6395 104.31 38.942 107.144 32.0568 103.904L30.437 46.8012Z" fill="#0096C8"/>
<path id="Vector_22" d="M30.437 46.8012L43.3952 46.279H43.5064V46.3902L44.4057 60.8617L45.2857 75.3381L46.9538 104.291V104.538L46.7266 104.62C46.1259 104.826 45.5141 104.999 44.8941 105.137C44.28 105.282 43.6611 105.398 43.0422 105.5L42.1042 105.621C41.7899 105.664 41.4756 105.679 41.1372 105.708C40.7987 105.737 40.5086 105.746 40.1701 105.756C39.8317 105.766 39.5367 105.78 39.2031 105.756C38.8695 105.732 38.5745 105.756 38.2361 105.756L37.2691 105.679C36.9548 105.679 36.6453 105.592 36.331 105.553C36.0168 105.514 35.7025 105.461 35.3978 105.384L34.4695 105.171L33.5653 104.89L33.1108 104.745L32.6708 104.562L31.9359 104.185L31.7667 104.117V103.919L31.3847 89.6405L31.0462 75.3623L30.7271 61.0841L30.437 46.8012ZM30.437 46.8012L30.9689 61.0745L31.4524 75.3478L31.9359 89.6211L32.3614 103.894L32.1873 103.629L33.0335 103.977L33.4541 104.151L33.8941 104.286L34.7644 104.557L35.659 104.76C35.9539 104.832 36.2585 104.876 36.5583 104.919C36.8581 104.963 37.1627 105.021 37.4673 105.036L38.3811 105.108C38.6906 105.108 38.9952 105.108 39.2998 105.108C39.6044 105.108 39.9139 105.108 40.2185 105.108C40.5231 105.108 40.8326 105.108 41.1372 105.06C41.4418 105.011 41.7512 105.011 42.051 104.973L42.9648 104.847C43.5692 104.75 44.1736 104.634 44.7683 104.489C45.3616 104.359 45.9475 104.198 46.5235 104.006L46.3107 104.334L44.7393 75.372L44.0237 60.8859L43.3081 46.4047L43.4242 46.5111L30.437 46.8012Z" fill="#1B4268"/>
<path id="Vector_23" d="M-12.1264 63.5983C-12.1264 63.5983 -13.2868 55.8621 -10.8693 54.7887C-8.4517 53.7153 8.8049 60.2863 -7.03017 58.4586C-7.03017 58.4586 19.8677 64.4252 -6.22268 62.0318C-6.22268 62.0318 15.3275 65.9482 -5.6038 64.6234C-5.6038 64.6234 11.3192 68.6849 -6.59499 66.7895L-7.29125 72.3016C-7.29125 72.3016 -9.41388 73.6844 -12.1264 63.5983Z" fill="#FFAC9D"/>
<path id="Vector_24" d="M-12.1266 63.5984C-12.3092 62.4668 -12.4238 61.3253 -12.4699 60.18C-12.5351 59.0289 -12.4571 57.8741 -12.2378 56.7422C-12.1331 56.1552 -11.8931 55.6006 -11.5367 55.1225C-11.3425 54.8744 -11.0805 54.688 -10.7825 54.5858C-10.4853 54.5127 -10.1791 54.4834 -9.87345 54.4987C-8.71599 54.5742 -7.56998 54.7736 -6.45504 55.0934C-5.3418 55.3907 -4.24577 55.749 -3.17197 56.1668C-2.62928 56.3749 -2.09827 56.6122 -1.58122 56.8776C-1.31644 57.016 -1.05975 57.1694 -0.812419 57.3369C-0.680926 57.4253 -0.557905 57.5257 -0.444944 57.6367C-0.292872 57.7732 -0.187931 57.9543 -0.145168 58.1541C-0.136033 58.225 -0.141181 58.2971 -0.160278 58.366C-0.179376 58.4349 -0.212058 58.4993 -0.256396 58.5554C-0.323853 58.6437 -0.40961 58.7162 -0.507804 58.7682C-0.660597 58.8461 -0.823246 58.9031 -0.991317 58.9374C-1.28632 58.9984 -1.58523 59.0388 -1.88583 59.0583C-2.47572 59.0921 -3.05593 59.0873 -3.63131 59.0583C-4.78691 59.0196 -5.93283 58.9035 -7.07392 58.7778L-6.96272 58.1348C-4.97548 58.5796 -2.9979 59.0486 -1.02517 59.5563C-0.0581398 59.8125 0.947561 60.0785 1.92909 60.3734C2.41261 60.5185 2.89612 60.6732 3.37963 60.8569C3.87612 61.0238 4.36075 61.2241 4.83017 61.4565C4.96461 61.5253 5.09245 61.6062 5.21214 61.6982L5.31369 61.7901C5.35456 61.8354 5.39174 61.8839 5.42489 61.9352C5.46912 62.0174 5.4955 62.108 5.50226 62.2011C5.50296 62.3125 5.46731 62.4212 5.40072 62.5105C5.26154 62.67 5.07229 62.7774 4.86402 62.8152C4.71413 62.8538 4.57875 62.8732 4.44337 62.8973C3.92324 62.9554 3.40014 62.9829 2.87679 62.9796C1.84691 62.9796 0.826675 62.9409 -0.193538 62.8828C-2.22913 62.7571 -4.25503 62.5831 -6.28095 62.3993L-6.18909 61.7031C-4.59349 62.0029 -3.00758 62.322 -1.42649 62.6701C-0.633529 62.8442 0.15942 63.0279 0.947547 63.231C1.33919 63.3325 1.73084 63.4437 2.12732 63.5598C2.53207 63.6764 2.92796 63.8218 3.31194 63.9949C3.43037 64.0492 3.54096 64.1191 3.64072 64.2028C3.74504 64.287 3.81265 64.4083 3.8293 64.5413C3.82895 64.6239 3.80745 64.7051 3.76682 64.777C3.72619 64.849 3.6678 64.9093 3.59722 64.9523C3.37256 65.0593 3.12982 65.1232 2.8816 65.1409C2.45611 65.1844 2.04998 65.194 1.639 65.2037C0.821859 65.2037 0.00955677 65.2037 -0.77857 65.1554C-2.40317 65.0877 -4.01811 64.9813 -5.6137 64.8653L-5.54603 64.3817C-4.24538 64.7154 -2.95924 65.0635 -1.67793 65.4503C-1.03969 65.6437 -0.401446 65.8468 0.231956 66.0837C0.54624 66.1998 0.860525 66.3255 1.16997 66.4754C1.34346 66.5478 1.50616 66.6438 1.65349 66.7606C1.69896 66.8 1.73666 66.8476 1.76469 66.9009C1.79068 66.9403 1.80455 66.9866 1.80455 67.0338C1.80455 67.0811 1.79068 67.1273 1.76469 67.1668C1.68533 67.2519 1.57982 67.308 1.46491 67.3263C1.12534 67.389 0.780228 67.4165 0.435024 67.4085C0.0965643 67.4085 -0.237039 67.4085 -0.570662 67.3795C-1.23791 67.3408 -1.90517 67.2877 -2.57241 67.2296C-3.90208 67.1088 -5.22689 66.9444 -6.55172 66.78C-5.22045 66.896 -3.8892 66.9943 -2.55793 67.0749C-1.89551 67.1136 -1.22826 67.1474 -0.561012 67.1619C-0.232224 67.1619 0.101401 67.1619 0.406014 67.1619C0.731112 67.1638 1.05542 67.1298 1.37304 67.0604C1.42371 67.0524 1.47179 67.0326 1.51328 67.0024C1.51328 67.0024 1.51328 67.0459 1.51328 67.0362C1.51328 67.0266 1.51327 67.0072 1.46975 66.9879C1.3453 66.8967 1.2106 66.8205 1.06843 66.7606C0.768507 66.6272 0.461887 66.5094 0.149768 66.4077C-0.4788 66.1998 -1.11704 66.016 -1.75528 65.8323C-3.03659 65.4745 -4.3324 65.1505 -5.62338 64.8653L-5.55087 64.3817C-3.94077 64.4688 -2.32584 64.5413 -0.71574 64.58C0.0917273 64.58 0.89436 64.58 1.70183 64.58C2.10314 64.58 2.49962 64.5461 2.8816 64.4978C3.03698 64.4846 3.18987 64.4504 3.3361 64.3962C3.31232 64.4182 3.29389 64.4453 3.28216 64.4755C3.27043 64.5056 3.26574 64.5381 3.26844 64.5703C3.26844 64.6864 3.31679 64.6767 3.29745 64.667C3.23716 64.6257 3.17415 64.5886 3.10887 64.5558C2.75383 64.4022 2.38873 64.273 2.01612 64.169C1.63415 64.0578 1.24733 63.9514 0.860518 63.8547C0.0820618 63.6565 -0.701223 63.4824 -1.48935 63.3083C-3.0656 62.9699 -4.65153 62.6604 -6.23745 62.3752L-6.14075 61.6789C-4.11966 61.853 -2.09858 62.0174 -0.0726595 62.1286C0.937883 62.1769 1.94843 62.2156 2.9493 62.2204C3.43363 62.2218 3.91774 62.1992 4.39984 62.1527C4.5105 62.1378 4.62026 62.1168 4.72863 62.0899C4.82049 62.0899 4.93171 61.998 4.85918 62.0657C4.85918 62.0657 4.80599 62.1479 4.82533 62.2011C4.81497 62.2292 4.81497 62.26 4.82533 62.2881L4.78664 62.2543C4.70289 62.193 4.61572 62.1365 4.52556 62.085C4.08669 61.8694 3.63449 61.6821 3.17173 61.5242C2.68821 61.3598 2.2047 61.2051 1.72119 61.0407C0.754159 60.7457 -0.212868 60.475 -1.17989 60.2139C-3.13974 59.6981 -5.10926 59.2146 -7.08844 58.7633L-6.97721 58.1202C-5.84579 58.2556 -4.71437 58.3668 -3.59262 58.4297C-3.03253 58.4667 -2.47092 58.4748 -1.91 58.4539C-1.63905 58.4451 -1.36915 58.416 -1.10254 58.3668C-0.989321 58.3438 -0.87904 58.3081 -0.77376 58.2605C-0.745022 58.2475 -0.71881 58.2295 -0.696381 58.2073C-0.725618 58.1302 -0.771915 58.0608 -0.831779 58.0042C-0.923792 57.9147 -1.02238 57.8323 -1.12671 57.7576C-1.3508 57.5991 -1.585 57.4553 -1.82782 57.3273C-2.32339 57.059 -2.83346 56.8185 -3.3557 56.6068C-4.40392 56.1742 -5.47582 55.8013 -6.56624 55.4899C-7.11261 55.3352 -7.66381 55.195 -8.21985 55.0789C-8.76758 54.9566 -9.32347 54.8742 -9.88313 54.8323C-10.1482 54.8117 -10.4149 54.8263 -10.6761 54.8759C-10.9262 54.9517 -11.1482 55.0997 -11.3143 55.3014C-11.6541 55.7375 -11.8905 56.245 -12.0058 56.7857C-12.2516 57.8965 -12.362 59.033 -12.3345 60.1703C-12.3284 61.316 -12.259 62.4604 -12.1266 63.5984Z" fill="#D15A5A"/>
<path id="Vector_25" d="M87.5402 54.5471C87.5402 54.5471 88.9907 46.8689 86.6263 45.694C84.2619 44.519 66.7491 50.4227 82.647 49.2139C82.647 49.2139 55.5364 54.1313 81.68 52.7533C81.68 52.7533 59.9896 55.8284 80.9644 55.3159C80.9644 55.3159 63.8964 58.7005 81.8686 57.5207L82.3521 63.0569C82.3521 63.0569 84.4263 64.5365 87.5402 54.5471Z" fill="#FFAC9D"/>
</g>
</g>
</g>
</g>
</g>
</g>
<g id="Landing Page-Sign In_2" clip-path="url(#clip2_0_1)">
<rect width="1440" height="3771" transform="translate(-709 -589)" fill="white"/>
<g id="Home Screen_2">
<rect id="Rectangle 84_2" x="-709" y="-503" width="1440" height="678" fill="#F7F5F9"/>
<g id="Group 1250_2">
<g id="Group 27_2">
<g id="5793401 1_2" clip-path="url(#clip3_0_1)">
<g id="OBJECTS_2">
<path id="Vector_26" d="M9.2642 18.5109C9.2642 18.5109 10.5939 29.0273 5.51697 33.3789C-0.0676029 38.1609 -4.79636 56.926 15.5547 62.0899C35.9058 67.2539 59.332 69.2701 60.6375 41.3569C61.8463 15.4889 56.4067 7.75268 50.1791 1.6459C44.3237 -4.09824 9.2642 18.5109 9.2642 18.5109Z" fill="#352C38"/>
<path id="Vector_27" d="M12.2134 28.679C12.2134 28.679 12.8226 37.184 20.1092 35.9704C27.3957 34.7568 17.9865 25.338 12.2134 28.679Z" fill="#F29083"/>
<path id="Vector_28" d="M54.5889 21.1169C54.5889 21.1169 59.9607 27.7411 53.8104 31.8364C47.6601 35.9318 48.0953 22.6255 54.5889 21.1169Z" fill="#F29083"/>
<path id="Vector_29" d="M29.8329 1.03654C29.8329 1.03654 12.2137 4.98685 13.7319 20.4786C15.6321 39.8192 29.2044 50.2437 39.2469 49.3347C49.2895 48.4257 54.2939 31.1884 52.002 17.4228C50.4838 8.32793 44.7155 -0.78147 29.8329 1.03654Z" fill="#FFAC9D"/>
<path id="Vector_30" d="M13.7319 20.4785C13.7319 20.4785 13.7754 20.788 13.8528 21.3682C13.8915 21.6583 13.9302 22.0161 14.0027 22.4319L14.2493 23.8825C14.3557 24.4192 14.4911 25.0042 14.6313 25.6473C14.7715 26.2904 14.9601 26.977 15.1825 27.6974C15.6639 29.326 16.2501 30.9217 16.9376 32.4745C17.749 34.3064 18.7198 36.0635 19.8387 37.7255C21.0834 39.5801 22.5281 41.2923 24.1468 42.8314C24.9971 43.645 25.9035 44.398 26.8593 45.0845C27.8293 45.7966 28.8544 46.4304 29.9248 46.9799C32.0897 48.1312 34.4642 48.835 36.9068 49.0493C38.1197 49.1671 39.3436 49.092 40.5331 48.8269C41.6968 48.5325 42.7943 48.0206 43.7678 47.3184C45.6602 45.886 47.2069 44.0469 48.2935 41.9369C49.3517 39.972 50.1947 37.8986 50.8078 35.7527C51.3548 33.8228 51.7636 31.8564 52.031 29.8684C52.441 26.8859 52.5544 23.8702 52.3695 20.8653C52.3357 20.319 52.297 19.8355 52.2486 19.4148C52.2003 18.9941 52.1713 18.6315 52.1277 18.3462C52.0504 17.766 52.0069 17.4566 52.0069 17.4566C52.0069 17.4566 52.06 17.7612 52.1519 18.3414C52.2051 18.6267 52.2535 18.9845 52.3066 19.4051C52.3598 19.8258 52.4227 20.3141 52.4662 20.8557C52.5726 21.9436 52.6548 23.2732 52.6548 24.7963C52.6668 26.5059 52.5699 28.2146 52.3647 29.9119C52.1317 31.9226 51.752 33.9135 51.2284 35.8688C50.6491 38.0635 49.8185 40.1841 48.7528 42.1883C47.6356 44.3745 46.043 46.2827 44.0918 47.7729C43.0611 48.5265 41.8958 49.0763 40.6588 49.3926C39.4135 49.6784 38.1308 49.7649 36.8584 49.6489C34.3401 49.4132 31.895 48.6732 29.6685 47.4731C28.5747 46.9149 27.5285 46.268 26.5402 45.539C25.5701 44.8341 24.6508 44.0618 23.789 43.2278C22.1493 41.64 20.7003 39.8664 19.4712 37.943C17.4398 34.7994 15.9219 31.3523 14.9746 27.7312C14.7715 27.0011 14.6361 26.2807 14.4911 25.657C14.346 25.0332 14.2541 24.4143 14.1623 23.8776C14.0704 23.3409 14.0124 22.8526 13.9544 22.4271C13.8963 22.0016 13.8673 21.6486 13.8335 21.3537L13.7319 20.4785Z" fill="#D15A5A"/>
<path id="Vector_31" d="M28.242 3.97634C28.242 3.97634 33.1593 25.6087 57.4172 23.3169C57.4172 23.3169 59.3851 -3.56163 36.4375 -2.90405C13.49 -2.24647 5.29926 6.2827 10.8693 30.2021C10.8693 30.2069 29.8811 27.9054 28.242 3.97634Z" fill="#352C38"/>
<path id="Vector_32" d="M28.3145 1.95039C28.3145 1.95039 29.2235 21.9969 48.6607 25.338L28.3145 1.95039Z" fill="#352C38"/>
<path id="Vector_33" d="M21.4487 29.2063C21.4487 29.2063 21.5213 29.4045 21.6615 29.7381C21.8501 30.1957 22.0631 30.6428 22.2997 31.0775C22.6084 31.6824 23.0098 32.2355 23.4892 32.7166C23.7404 32.9627 24.0448 33.148 24.3788 33.2581C24.7158 33.3531 25.0739 33.3413 25.4038 33.2243H25.4329H25.4087L25.4812 33.1904L25.6504 33.1082C25.7423 33.0647 25.8439 33.026 25.9309 32.9777C26.0698 32.8817 26.2022 32.7767 26.3274 32.6634C26.4592 32.5393 26.5775 32.4015 26.6803 32.2524C26.7335 32.175 26.7867 32.1074 26.8351 32.03L26.9559 31.7882C27.2386 31.177 27.4199 30.5237 27.4926 29.8542C27.5561 29.3635 27.5884 28.8694 27.5893 28.3746C27.5893 28.012 27.5893 27.8041 27.5893 27.8041C27.6431 27.9885 27.6867 28.1757 27.7199 28.365C27.8172 28.8637 27.869 29.3702 27.8746 29.8784C27.8759 30.2232 27.8501 30.5675 27.7972 30.9082C27.7439 31.2988 27.6399 31.6808 27.4878 32.0445L27.3573 32.3298C27.3089 32.4265 27.246 32.5135 27.188 32.6102C27.0733 32.8005 26.9334 32.9746 26.7722 33.1276C26.6 33.2935 26.4121 33.4425 26.2113 33.5724C26.1146 33.6256 26.0228 33.6643 25.9309 33.7078L25.7907 33.7755L25.723 33.8093H25.6843H25.6408C25.183 33.9543 24.6916 33.9543 24.2338 33.8093C23.7998 33.6737 23.4061 33.4329 23.0878 33.1082C22.5956 32.5553 22.2133 31.9137 21.9613 31.2177C21.785 30.7454 21.6444 30.2605 21.5406 29.7671C21.4681 29.4142 21.4487 29.2063 21.4487 29.2063Z" fill="#1C171E"/>
<path id="Vector_34" d="M37.5835 26.0246L37.7962 26.5564C37.9316 26.8901 38.1492 27.3591 38.4345 27.8958C38.7449 28.4997 39.146 29.0525 39.6239 29.5349C39.8778 29.7802 40.1834 29.9652 40.5184 30.0764C40.8538 30.1714 41.2103 30.1595 41.5386 30.0426H41.5725H41.5483L41.6209 30.0087L41.7611 29.9459C41.8529 29.9024 41.9545 29.8637 42.0367 29.8153C42.178 29.7205 42.3121 29.6155 42.438 29.501C42.5685 29.3756 42.6867 29.238 42.791 29.09C42.8393 29.0127 42.8973 28.945 42.9457 28.8676L43.0666 28.6259C43.3493 28.0146 43.5305 27.3614 43.6033 26.6918C43.6654 26.2011 43.6961 25.7069 43.6951 25.2123C43.6951 24.8496 43.6951 24.6417 43.6951 24.6417C43.7489 24.8261 43.7925 25.0134 43.8257 25.2026C43.9237 25.7011 43.9739 26.2079 43.9756 26.716C43.9786 27.0607 43.9544 27.405 43.903 27.7459C43.8462 28.1347 43.7406 28.5149 43.5887 28.8773L43.463 29.1674C43.4099 29.2593 43.3518 29.3511 43.2938 29.443C43.1792 29.6349 43.0393 29.8105 42.878 29.9652C42.7057 30.1312 42.5179 30.2801 42.3171 30.41C42.2204 30.4632 42.1285 30.5019 42.0367 30.5454L41.8964 30.6131L41.8239 30.647H41.7804H41.7417C41.2839 30.7919 40.7925 30.7919 40.3347 30.647C39.9111 30.4986 39.5307 30.2478 39.2275 29.9169C38.7336 29.3652 38.351 28.7232 38.1009 28.0263C37.9201 27.5555 37.7794 27.0703 37.6802 26.5758C37.6383 26.3939 37.606 26.2099 37.5835 26.0246Z" fill="#1C171E"/>
<path id="Vector_35" d="M31.1189 28.9305C31.0703 29.9562 30.9508 30.9772 30.7611 31.9863C30.6692 32.4699 30.5725 32.9872 30.4613 33.4852C30.3501 33.9833 30.2244 34.4813 30.0939 34.9745L29.9681 34.694C31.0947 35.3758 32.2068 36.072 33.285 36.8311C32.0714 36.3186 30.8916 35.7384 29.7215 35.1437L29.562 35.0663L29.591 34.8681C29.6732 34.3846 29.7602 33.8575 29.8666 33.3595C29.973 32.8615 30.0793 32.3635 30.2002 31.8655C30.4403 30.8677 30.7472 29.8872 31.1189 28.9305Z" fill="#D15A5A"/>
<path id="Vector_36" d="M30.8628 39.8289C30.8628 39.8289 31.0369 39.8869 31.3463 39.9642C31.4962 40.0078 31.6799 40.0513 31.8927 40.1045C32.1054 40.1576 32.3423 40.1963 32.5986 40.2544C32.8549 40.3124 33.1401 40.3559 33.4399 40.3849C33.7397 40.4139 34.054 40.4478 34.3828 40.4574C34.7146 40.4743 35.047 40.4743 35.3788 40.4574C35.548 40.4574 35.7173 40.4139 35.8623 40.3946C36.0256 40.3786 36.1873 40.3495 36.3458 40.3075C36.6782 40.2432 37.0024 40.1427 37.3129 40.0078C37.4676 39.9401 37.6272 39.8869 37.7722 39.8192L38.188 39.5726C38.4564 39.4192 38.7076 39.2377 38.9375 39.0311C39.0487 38.9344 39.1696 38.8522 39.2663 38.7506L39.537 38.446C39.711 38.2773 39.8726 38.0964 40.0205 37.9045L40.3445 37.421L40.6346 37.0245L40.4509 37.508C40.388 37.6531 40.3107 37.832 40.2188 38.035C40.1058 38.2576 39.9731 38.4696 39.8223 38.6684L39.5806 39.0262C39.4832 39.1472 39.3765 39.2603 39.2614 39.3647C39.0374 39.6171 38.7804 39.8383 38.4975 40.0223L38.0527 40.3269C37.8931 40.4139 37.7239 40.4816 37.5691 40.559C37.2277 40.7117 36.8711 40.8284 36.5054 40.9071C36.323 40.9526 36.1369 40.9817 35.9494 40.9941C35.7656 40.9941 35.5819 41.0473 35.3981 41.0521C35.0414 41.0599 34.6845 41.0453 34.3296 41.0086C34.0033 40.9802 33.6799 40.9252 33.3626 40.8442C33.0531 40.7862 32.7727 40.6798 32.5116 40.6073C31.9325 40.4154 31.3789 40.154 30.8628 39.8289Z" fill="#D15A5A"/>
<path id="Vector_37" d="M34.1023 24.5838C34.0824 24.3651 34.0824 24.145 34.1023 23.9262C34.1509 23.3429 34.2777 22.7689 34.4795 22.2194C34.7755 21.4062 35.2402 20.6647 35.843 20.0436C36.207 19.6776 36.6223 19.3665 37.0759 19.1201C37.56 18.8674 38.0803 18.6912 38.6183 18.5979C39.146 18.523 39.6815 18.523 40.2091 18.5979C40.4611 18.6269 40.7102 18.677 40.9537 18.7478C41.1896 18.8061 41.4207 18.882 41.6451 18.975C41.8608 19.0522 42.0708 19.1443 42.2737 19.2506C42.4719 19.357 42.6702 19.4489 42.8443 19.5649L43.3278 19.8986L43.7678 20.2418C44.0214 20.4458 44.2605 20.6671 44.4834 20.9043C44.6575 21.078 44.819 21.2638 44.9669 21.4603C45.2328 21.7843 45.3634 21.9825 45.3634 21.9825C45.3634 21.9825 45.1264 21.9196 44.7445 21.7746L44.0627 21.528C43.8016 21.4361 43.5163 21.3201 43.202 21.2185L42.7185 21.0493L42.2012 20.8946C42.0271 20.8366 41.8482 20.7931 41.6645 20.7495C41.4832 20.6964 41.2992 20.6528 41.1133 20.619C40.7421 20.5406 40.3655 20.4905 39.9867 20.4691C39.6202 20.4461 39.2522 20.4624 38.8891 20.5175C38.5377 20.5804 38.194 20.6809 37.8641 20.8172C37.5368 20.9625 37.2242 21.1389 36.9309 21.3443C36.3679 21.7645 35.8581 22.2516 35.4126 22.7948C34.9871 23.2783 34.6632 23.7618 34.4456 24.0713L34.1023 24.5838Z" fill="#1C171E"/>
<path id="Vector_38" d="M28.8849 25.4539L28.4014 25.1638C28.1017 24.9849 27.681 24.7383 27.183 24.4724C26.6525 24.1765 26.0996 23.9227 25.5294 23.7133C25.2385 23.609 24.9392 23.5297 24.6349 23.4764C24.3464 23.423 24.0525 23.4052 23.7597 23.4232C23.4707 23.4386 23.1847 23.4905 22.9087 23.5779C22.7685 23.6214 22.6331 23.6794 22.4929 23.7278C22.3527 23.7761 22.2173 23.8583 22.0867 23.9309C21.8194 24.0789 21.5595 24.2403 21.3083 24.4144C21.0714 24.6029 20.8248 24.7722 20.6169 24.9559C20.409 25.1396 20.1962 25.2992 20.0173 25.4394L19.5338 25.8456C19.3949 25.9737 19.2497 26.0947 19.0986 26.2082C19.1246 26.0196 19.16 25.8324 19.205 25.6473C19.2491 25.4342 19.3122 25.2254 19.3936 25.0236C19.481 24.7538 19.591 24.4917 19.7224 24.2403C19.8789 23.9344 20.06 23.6417 20.2639 23.3652C20.5094 23.0509 20.7847 22.7611 21.0859 22.4997C21.4318 22.2103 21.8177 21.9725 22.2318 21.7937C23.1256 21.4142 24.1228 21.3545 25.0555 21.6245C25.4817 21.7432 25.8899 21.9188 26.2692 22.1467C26.8997 22.5239 27.454 23.0159 27.9034 23.5972C28.2149 23.9923 28.4764 24.4242 28.6819 24.8834C28.7659 25.0674 28.8338 25.2583 28.8849 25.4539Z" fill="#1C171E"/>
<path id="Vector_39" d="M21.5311 96.6177C21.5311 96.6177 -7.62963 124.56 -5.60371 174.778H78.634C78.634 174.778 91.2054 118.888 67.6969 88.514C44.1885 58.1397 21.5311 96.6177 21.5311 96.6177Z" fill="#FC6A5A"/>
<path id="Vector_40" d="M38.7776 111.766C48.327 114.493 58.1761 116.055 68.0108 117.365C71.9514 117.892 76.0033 118.376 80.0986 118.729C78.1307 107.84 74.369 97.1495 67.6917 88.514C44.2026 58.1397 21.5258 96.6177 21.5258 96.6177C19.3177 98.8596 17.2797 101.263 15.4287 103.808C23.1698 106.602 30.8673 109.503 38.7776 111.766Z" fill="#EA4134"/>
<path id="Vector_41" d="M-3.1768 49.6394L-3.57812 36.2751C-3.57812 36.2751 31.2349 37.8948 36.1087 52.0666C36.1087 52.0666 52.3064 33.843 70.9217 30.6035L77.8069 65.8371L-3.1768 49.6394Z" fill="#FDDEC0"/>
<path id="Vector_42" d="M-8.03613 38.7023L30.437 46.8011L34.0827 101.472L-6.41635 91.3472L-8.03613 38.7023Z" fill="#0096C8"/>
<path id="Vector_43" d="M-8.03613 38.7023L30.437 46.8011L34.0827 101.472L-6.41635 91.3472L-8.03613 38.7023Z" stroke="#1B4268" stroke-width="0.5" stroke-miterlimit="10"/>
<path id="Vector_44" d="M79.0884 33.7318L42.0513 46.9172L45.7743 101.583L84.5473 86.1205L79.0884 33.7318Z" fill="#0096C8"/>
<path id="Vector_45" d="M79.0884 33.7318L42.0513 46.9172L45.7743 101.583L84.5473 86.1205L79.0884 33.7318Z" stroke="#1B4268" stroke-width="0.5" stroke-miterlimit="10"/>
<path id="Vector_46" d="M30.437 46.8012L43.4 46.395L46.6395 104.31C46.6395 104.31 38.942 107.144 32.0568 103.904L30.437 46.8012Z" fill="#0096C8"/>
<path id="Vector_47" d="M30.437 46.8012L43.3952 46.279H43.5064V46.3902L44.4057 60.8617L45.2857 75.3381L46.9538 104.291V104.538L46.7266 104.62C46.1259 104.826 45.5141 104.999 44.8941 105.137C44.28 105.282 43.6611 105.398 43.0422 105.5L42.1042 105.621C41.7899 105.664 41.4756 105.679 41.1372 105.708C40.7987 105.737 40.5086 105.746 40.1701 105.756C39.8317 105.766 39.5367 105.78 39.2031 105.756C38.8695 105.732 38.5745 105.756 38.2361 105.756L37.2691 105.679C36.9548 105.679 36.6453 105.592 36.331 105.553C36.0168 105.514 35.7025 105.461 35.3978 105.384L34.4695 105.171L33.5653 104.89L33.1108 104.745L32.6708 104.562L31.9359 104.185L31.7667 104.117V103.919L31.3847 89.6405L31.0462 75.3623L30.7271 61.0841L30.437 46.8012ZM30.437 46.8012L30.9689 61.0745L31.4524 75.3478L31.9359 89.6211L32.3614 103.894L32.1873 103.629L33.0335 103.977L33.4541 104.151L33.8941 104.286L34.7644 104.557L35.659 104.76C35.9539 104.832 36.2585 104.876 36.5583 104.919C36.8581 104.963 37.1627 105.021 37.4673 105.036L38.3811 105.108C38.6906 105.108 38.9952 105.108 39.2998 105.108C39.6044 105.108 39.9139 105.108 40.2185 105.108C40.5231 105.108 40.8326 105.108 41.1372 105.06C41.4418 105.011 41.7512 105.011 42.051 104.973L42.9648 104.847C43.5692 104.75 44.1736 104.634 44.7683 104.489C45.3616 104.359 45.9475 104.198 46.5235 104.006L46.3107 104.334L44.7393 75.372L44.0237 60.8859L43.3081 46.4047L43.4242 46.5111L30.437 46.8012Z" fill="#1B4268"/>
<path id="Vector_48" d="M-12.1264 63.5983C-12.1264 63.5983 -13.2868 55.8621 -10.8693 54.7887C-8.4517 53.7153 8.8049 60.2863 -7.03017 58.4586C-7.03017 58.4586 19.8677 64.4252 -6.22268 62.0318C-6.22268 62.0318 15.3275 65.9482 -5.6038 64.6234C-5.6038 64.6234 11.3192 68.6849 -6.59499 66.7895L-7.29125 72.3016C-7.29125 72.3016 -9.41388 73.6844 -12.1264 63.5983Z" fill="#FFAC9D"/>
<path id="Vector_49" d="M-12.1266 63.5984C-12.3092 62.4668 -12.4238 61.3253 -12.4699 60.18C-12.5351 59.0289 -12.4571 57.8741 -12.2378 56.7422C-12.1331 56.1552 -11.8931 55.6006 -11.5367 55.1225C-11.3425 54.8744 -11.0805 54.688 -10.7825 54.5858C-10.4853 54.5127 -10.1791 54.4834 -9.87345 54.4987C-8.71599 54.5742 -7.56998 54.7736 -6.45504 55.0934C-5.3418 55.3907 -4.24577 55.749 -3.17197 56.1668C-2.62928 56.3749 -2.09827 56.6122 -1.58122 56.8776C-1.31644 57.016 -1.05975 57.1694 -0.812419 57.3369C-0.680926 57.4253 -0.557905 57.5257 -0.444944 57.6367C-0.292872 57.7732 -0.187931 57.9543 -0.145168 58.1541C-0.136033 58.225 -0.141181 58.2971 -0.160278 58.366C-0.179376 58.4349 -0.212058 58.4993 -0.256396 58.5554C-0.323853 58.6437 -0.40961 58.7162 -0.507804 58.7682C-0.660597 58.8461 -0.823246 58.9031 -0.991317 58.9374C-1.28632 58.9984 -1.58523 59.0388 -1.88583 59.0583C-2.47572 59.0921 -3.05593 59.0873 -3.63131 59.0583C-4.78691 59.0196 -5.93283 58.9035 -7.07392 58.7778L-6.96272 58.1348C-4.97548 58.5796 -2.9979 59.0486 -1.02517 59.5563C-0.0581398 59.8125 0.947561 60.0785 1.92909 60.3734C2.41261 60.5185 2.89612 60.6732 3.37963 60.8569C3.87612 61.0238 4.36075 61.2241 4.83017 61.4565C4.96461 61.5253 5.09245 61.6062 5.21214 61.6982L5.31369 61.7901C5.35456 61.8354 5.39174 61.8839 5.42489 61.9352C5.46912 62.0174 5.4955 62.108 5.50226 62.2011C5.50296 62.3125 5.46731 62.4212 5.40072 62.5105C5.26154 62.67 5.07229 62.7774 4.86402 62.8152C4.71413 62.8538 4.57875 62.8732 4.44337 62.8973C3.92324 62.9554 3.40014 62.9829 2.87679 62.9796C1.84691 62.9796 0.826675 62.9409 -0.193538 62.8828C-2.22913 62.7571 -4.25503 62.5831 -6.28095 62.3993L-6.18909 61.7031C-4.59349 62.0029 -3.00758 62.322 -1.42649 62.6701C-0.633529 62.8442 0.15942 63.0279 0.947547 63.231C1.33919 63.3325 1.73084 63.4437 2.12732 63.5598C2.53207 63.6764 2.92796 63.8218 3.31194 63.9949C3.43037 64.0492 3.54096 64.1191 3.64072 64.2028C3.74504 64.287 3.81265 64.4083 3.8293 64.5413C3.82895 64.6239 3.80745 64.7051 3.76682 64.777C3.72619 64.849 3.6678 64.9093 3.59722 64.9523C3.37256 65.0593 3.12982 65.1232 2.8816 65.1409C2.45611 65.1844 2.04998 65.194 1.639 65.2037C0.821859 65.2037 0.00955677 65.2037 -0.77857 65.1554C-2.40317 65.0877 -4.01811 64.9813 -5.6137 64.8653L-5.54603 64.3817C-4.24538 64.7154 -2.95924 65.0635 -1.67793 65.4503C-1.03969 65.6437 -0.401446 65.8468 0.231956 66.0837C0.54624 66.1998 0.860525 66.3255 1.16997 66.4754C1.34346 66.5478 1.50616 66.6438 1.65349 66.7606C1.69896 66.8 1.73666 66.8476 1.76469 66.9009C1.79068 66.9403 1.80455 66.9866 1.80455 67.0338C1.80455 67.0811 1.79068 67.1273 1.76469 67.1668C1.68533 67.2519 1.57982 67.308 1.46491 67.3263C1.12534 67.389 0.780228 67.4165 0.435024 67.4085C0.0965643 67.4085 -0.237039 67.4085 -0.570662 67.3795C-1.23791 67.3408 -1.90517 67.2877 -2.57241 67.2296C-3.90208 67.1088 -5.22689 66.9444 -6.55172 66.78C-5.22045 66.896 -3.8892 66.9943 -2.55793 67.0749C-1.89551 67.1136 -1.22826 67.1474 -0.561012 67.1619C-0.232224 67.1619 0.101401 67.1619 0.406014 67.1619C0.731112 67.1638 1.05542 67.1298 1.37304 67.0604C1.42371 67.0524 1.47179 67.0326 1.51328 67.0024C1.51328 67.0024 1.51328 67.0459 1.51328 67.0362C1.51328 67.0266 1.51327 67.0072 1.46975 66.9879C1.3453 66.8967 1.2106 66.8205 1.06843 66.7606C0.768507 66.6272 0.461887 66.5094 0.149768 66.4077C-0.4788 66.1998 -1.11704 66.016 -1.75528 65.8323C-3.03659 65.4745 -4.3324 65.1505 -5.62338 64.8653L-5.55087 64.3817C-3.94077 64.4688 -2.32584 64.5413 -0.71574 64.58C0.0917273 64.58 0.89436 64.58 1.70183 64.58C2.10314 64.58 2.49962 64.5461 2.8816 64.4978C3.03698 64.4846 3.18987 64.4504 3.3361 64.3962C3.31232 64.4182 3.29389 64.4453 3.28216 64.4755C3.27043 64.5056 3.26574 64.5381 3.26844 64.5703C3.26844 64.6864 3.31679 64.6767 3.29745 64.667C3.23716 64.6257 3.17415 64.5886 3.10887 64.5558C2.75383 64.4022 2.38873 64.273 2.01612 64.169C1.63415 64.0578 1.24733 63.9514 0.860518 63.8547C0.0820618 63.6565 -0.701223 63.4824 -1.48935 63.3083C-3.0656 62.9699 -4.65153 62.6604 -6.23745 62.3752L-6.14075 61.6789C-4.11966 61.853 -2.09858 62.0174 -0.0726595 62.1286C0.937883 62.1769 1.94843 62.2156 2.9493 62.2204C3.43363 62.2218 3.91774 62.1992 4.39984 62.1527C4.5105 62.1378 4.62026 62.1168 4.72863 62.0899C4.82049 62.0899 4.93171 61.998 4.85918 62.0657C4.85918 62.0657 4.80599 62.1479 4.82533 62.2011C4.81497 62.2292 4.81497 62.26 4.82533 62.2881L4.78664 62.2543C4.70289 62.193 4.61572 62.1365 4.52556 62.085C4.08669 61.8694 3.63449 61.6821 3.17173 61.5242C2.68821 61.3598 2.2047 61.2051 1.72119 61.0407C0.754159 60.7457 -0.212868 60.475 -1.17989 60.2139C-3.13974 59.6981 -5.10926 59.2146 -7.08844 58.7633L-6.97721 58.1202C-5.84579 58.2556 -4.71437 58.3668 -3.59262 58.4297C-3.03253 58.4667 -2.47092 58.4748 -1.91 58.4539C-1.63905 58.4451 -1.36915 58.416 -1.10254 58.3668C-0.989321 58.3438 -0.87904 58.3081 -0.77376 58.2605C-0.745022 58.2475 -0.71881 58.2295 -0.696381 58.2073C-0.725618 58.1302 -0.771915 58.0608 -0.831779 58.0042C-0.923792 57.9147 -1.02238 57.8323 -1.12671 57.7576C-1.3508 57.5991 -1.585 57.4553 -1.82782 57.3273C-2.32339 57.059 -2.83346 56.8185 -3.3557 56.6068C-4.40392 56.1742 -5.47582 55.8013 -6.56624 55.4899C-7.11261 55.3352 -7.66381 55.195 -8.21985 55.0789C-8.76758 54.9566 -9.32347 54.8742 -9.88313 54.8323C-10.1482 54.8117 -10.4149 54.8263 -10.6761 54.8759C-10.9262 54.9517 -11.1482 55.0997 -11.3143 55.3014C-11.6541 55.7375 -11.8905 56.245 -12.0058 56.7857C-12.2516 57.8965 -12.362 59.033 -12.3345 60.1703C-12.3284 61.316 -12.259 62.4604 -12.1266 63.5984Z" fill="#D15A5A"/>
<path id="Vector_50" d="M87.5402 54.5471C87.5402 54.5471 88.9907 46.8689 86.6263 45.694C84.2619 44.519 66.7491 50.4227 82.647 49.2139C82.647 49.2139 55.5364 54.1313 81.68 52.7533C81.68 52.7533 59.9896 55.8284 80.9644 55.3159C80.9644 55.3159 63.8964 58.7005 81.8686 57.5207L82.3521 63.0569C82.3521 63.0569 84.4263 64.5365 87.5402 54.5471Z" fill="#FFAC9D"/>
</g>
</g>
</g>
</g>
</g>
</g>
<defs>
<clipPath id="clip0_0_1">
<rect width="1440" height="3771" fill="white" transform="translate(-709 -589)"/>
</clipPath>
<clipPath id="clip1_0_1">
<rect width="345.707" height="216" fill="white" transform="translate(-257.64 -41)"/>
</clipPath>
<clipPath id="clip2_0_1">
<rect width="1440" height="3771" fill="white" transform="translate(-709 -589)"/>
</clipPath>
<clipPath id="clip3_0_1">
<rect width="345.707" height="216" fill="white" transform="translate(-257.64 -41)"/>
</clipPath>
</defs>
</svg>
